<svg width="1037" height="172" viewBox="0 0 1037 172" fill="none" xmlns="http://www.w3.org/2000/svg">
<path opacity="0.5" d="M886.612 71.432C887.684 71.432 888.492 71.592 889.036 71.912C889.588 72.224 889.864 72.772 889.864 73.556C889.864 74.06 889.724 74.48 889.444 74.816C889.164 75.144 888.76 75.356 888.232 75.452V75.512C888.592 75.568 888.916 75.672 889.204 75.824C889.5 75.976 889.732 76.192 889.9 76.472C890.068 76.752 890.152 77.116 890.152 77.564C890.152 78.34 889.884 78.94 889.348 79.364C888.82 79.788 888.096 80 887.176 80H884.164V71.432H886.612ZM886.828 75.08C887.564 75.08 888.068 74.964 888.34 74.732C888.612 74.492 888.748 74.14 888.748 73.676C888.748 73.204 888.58 72.868 888.244 72.668C887.916 72.46 887.388 72.356 886.66 72.356H885.244V75.08H886.828ZM885.244 75.98V79.088H886.972C887.732 79.088 888.26 78.94 888.556 78.644C888.852 78.348 889 77.96 889 77.48C889 77.032 888.844 76.672 888.532 76.4C888.228 76.12 887.68 75.98 886.888 75.98H885.244ZM895.641 72.26C894.721 72.26 893.997 72.568 893.469 73.184C892.941 73.8 892.677 74.644 892.677 75.716C892.677 76.78 892.921 77.624 893.409 78.248C893.905 78.864 894.645 79.172 895.629 79.172C896.005 79.172 896.361 79.14 896.697 79.076C897.033 79.012 897.361 78.932 897.681 78.836V79.772C897.361 79.892 897.029 79.98 896.685 80.036C896.349 80.092 895.945 80.12 895.473 80.12C894.601 80.12 893.873 79.94 893.289 79.58C892.705 79.22 892.265 78.708 891.969 78.044C891.681 77.38 891.537 76.6 891.537 75.704C891.537 74.84 891.693 74.08 892.005 73.424C892.325 72.76 892.793 72.244 893.409 71.876C894.025 71.5 894.773 71.312 895.653 71.312C896.557 71.312 897.345 71.48 898.017 71.816L897.585 72.728C897.321 72.608 897.025 72.5 896.697 72.404C896.377 72.308 896.025 72.26 895.641 72.26ZM904.339 80H899.551V71.432H904.339V72.38H900.631V75.056H904.123V75.992H900.631V79.052H904.339V80ZM915.318 80H914.022L910.146 75.656V80H909.066V71.432H910.146V75.584L913.926 71.432H915.15L911.43 75.596L915.318 80ZM923.726 75.704C923.726 76.592 923.574 77.368 923.27 78.032C922.974 78.688 922.534 79.2 921.95 79.568C921.366 79.936 920.642 80.12 919.778 80.12C918.89 80.12 918.15 79.936 917.558 79.568C916.974 79.2 916.538 78.684 916.25 78.02C915.962 77.356 915.818 76.58 915.818 75.692C915.818 74.812 915.962 74.044 916.25 73.388C916.538 72.732 916.974 72.22 917.558 71.852C918.15 71.484 918.894 71.3 919.79 71.3C920.646 71.3 921.366 71.484 921.95 71.852C922.534 72.212 922.974 72.724 923.27 73.388C923.574 74.044 923.726 74.816 923.726 75.704ZM916.958 75.704C916.958 76.784 917.186 77.636 917.642 78.26C918.098 78.876 918.81 79.184 919.778 79.184C920.754 79.184 921.466 78.876 921.914 78.26C922.362 77.636 922.586 76.784 922.586 75.704C922.586 74.624 922.362 73.78 921.914 73.172C921.466 72.556 920.758 72.248 919.79 72.248C918.822 72.248 918.106 72.556 917.642 73.172C917.186 73.78 916.958 74.624 916.958 75.704ZM932.177 80H931.097V76.004H926.705V80H925.625V71.432H926.705V75.056H931.097V71.432H932.177V80ZM937.231 80H936.151V72.38H933.475V71.432H939.895V72.38H937.231V80ZM945.72 80L944.688 77.348H941.292L940.272 80H939.18L942.528 71.396H943.5L946.836 80H945.72ZM943.404 73.796C943.38 73.732 943.34 73.616 943.284 73.448C943.228 73.28 943.172 73.108 943.116 72.932C943.068 72.748 943.028 72.608 942.996 72.512C942.94 72.76 942.876 73.004 942.804 73.244C942.732 73.476 942.672 73.66 942.624 73.796L941.652 76.388H944.364L943.404 73.796ZM954.26 80H952.964L949.088 75.656V80H948.008V71.432H949.088V75.584L952.868 71.432H954.092L950.372 75.596L954.26 80ZM958.138 80H957.058V72.38H954.382V71.432H960.802V72.38H958.138V80ZM962.094 80V71.432H963.174V75.056H964.494C965.294 75.056 965.922 75.164 966.378 75.38C966.842 75.596 967.17 75.888 967.362 76.256C967.562 76.624 967.662 77.036 967.662 77.492C967.662 78.244 967.418 78.852 966.93 79.316C966.45 79.772 965.682 80 964.626 80H962.094ZM968.982 80V71.432H970.062V80H968.982ZM964.53 79.088C965.218 79.088 965.726 78.956 966.054 78.692C966.382 78.428 966.546 78.028 966.546 77.492C966.546 76.94 966.366 76.556 966.006 76.34C965.654 76.116 965.11 76.004 964.374 76.004H963.174V79.088H964.53Z" fill="#3E3E3E"/>
<path opacity="0.5" d="M656.432 3.432C657.552 3.432 658.368 3.652 658.88 4.092C659.392 4.532 659.648 5.152 659.648 5.952C659.648 6.424 659.54 6.868 659.324 7.284C659.116 7.692 658.76 8.024 658.256 8.28C657.76 8.536 657.084 8.664 656.228 8.664H655.244V12H654.164V3.432H656.432ZM656.336 4.356H655.244V7.74H656.108C656.924 7.74 657.532 7.608 657.932 7.344C658.332 7.08 658.532 6.632 658.532 6C658.532 5.448 658.356 5.036 658.004 4.764C657.652 4.492 657.096 4.356 656.336 4.356ZM666.218 12H661.43V3.432H666.218V4.38H662.51V7.056H666.002V7.992H662.51V11.052H666.218V12ZM670.39 7.596L667.066 3.432H668.266L671.542 7.584V3.432H672.574V7.584L675.85 3.432H677.05L673.726 7.584L677.158 12H675.922L672.574 7.656V12H671.542V7.656L668.182 12H666.946L670.39 7.596ZM678.352 3.432H679.36V8.136C679.36 8.4 679.356 8.696 679.348 9.024C679.34 9.352 679.328 9.652 679.312 9.924C679.304 10.196 679.292 10.396 679.276 10.524H679.324L684.04 3.432H685.24V12H684.232V7.344C684.232 7.048 684.236 6.732 684.244 6.396C684.26 6.06 684.276 5.752 684.292 5.472C684.308 5.192 684.32 4.992 684.328 4.872H684.28L679.552 12H678.352V3.432ZM691.331 12L688.511 4.488H688.463C688.487 4.736 688.507 5.072 688.523 5.496C688.539 5.912 688.547 6.348 688.547 6.804V12H687.551V3.432H689.147L691.787 10.452H691.835L694.523 3.432H696.107V12H695.039V6.732C695.039 6.316 695.047 5.904 695.063 5.496C695.087 5.088 695.107 4.756 695.123 4.5H695.075L692.219 12H691.331ZM703.553 3.432C704.673 3.432 705.489 3.652 706.001 4.092C706.513 4.532 706.769 5.152 706.769 5.952C706.769 6.424 706.661 6.868 706.445 7.284C706.237 7.692 705.881 8.024 705.377 8.28C704.881 8.536 704.205 8.664 703.349 8.664H702.365V12H701.285V3.432H703.553ZM703.457 4.356H702.365V7.74H703.229C704.045 7.74 704.653 7.608 705.053 7.344C705.453 7.08 705.653 6.632 705.653 6C705.653 5.448 705.477 5.036 705.125 4.764C704.773 4.492 704.217 4.356 703.457 4.356ZM713.329 12L712.297 9.348H708.901L707.881 12H706.789L710.137 3.396H711.109L714.445 12H713.329ZM711.013 5.796C710.989 5.732 710.949 5.616 710.893 5.448C710.837 5.28 710.781 5.108 710.725 4.932C710.677 4.748 710.637 4.608 710.605 4.512C710.549 4.76 710.485 5.004 710.413 5.244C710.341 5.476 710.281 5.66 710.233 5.796L709.261 8.388H711.973L711.013 5.796ZM715.617 12V3.432H720.705V4.38H716.697V7.056H717.969C718.825 7.056 719.489 7.164 719.961 7.38C720.433 7.588 720.761 7.876 720.945 8.244C721.129 8.604 721.221 9.02 721.221 9.492C721.221 10.276 720.985 10.892 720.513 11.34C720.041 11.78 719.245 12 718.125 12H715.617ZM718.017 11.076C718.785 11.076 719.325 10.948 719.637 10.692C719.949 10.428 720.105 10.028 720.105 9.492C720.105 8.94 719.933 8.552 719.589 8.328C719.245 8.104 718.661 7.992 717.837 7.992H716.697V11.076H718.017ZM730.476 7.704C730.476 8.592 730.324 9.368 730.02 10.032C729.724 10.688 729.284 11.2 728.7 11.568C728.116 11.936 727.392 12.12 726.528 12.12C725.64 12.12 724.9 11.936 724.308 11.568C723.724 11.2 723.288 10.684 723 10.02C722.712 9.356 722.568 8.58 722.568 7.692C722.568 6.812 722.712 6.044 723 5.388C723.288 4.732 723.724 4.22 724.308 3.852C724.9 3.484 725.644 3.3 726.54 3.3C727.396 3.3 728.116 3.484 728.7 3.852C729.284 4.212 729.724 4.724 730.02 5.388C730.324 6.044 730.476 6.816 730.476 7.704ZM723.708 7.704C723.708 8.784 723.936 9.636 724.392 10.26C724.848 10.876 725.56 11.184 726.528 11.184C727.504 11.184 728.216 10.876 728.664 10.26C729.112 9.636 729.336 8.784 729.336 7.704C729.336 6.624 729.112 5.78 728.664 5.172C728.216 4.556 727.508 4.248 726.54 4.248C725.572 4.248 724.856 4.556 724.392 5.172C723.936 5.78 723.708 6.624 723.708 7.704ZM734.724 12H733.644V4.38H730.968V3.432H737.388V4.38H734.724V12ZM738.68 12V3.432H739.76V7.056H741.08C741.88 7.056 742.508 7.164 742.964 7.38C743.428 7.596 743.756 7.888 743.948 8.256C744.148 8.624 744.248 9.036 744.248 9.492C744.248 10.244 744.004 10.852 743.516 11.316C743.036 11.772 742.268 12 741.212 12H738.68ZM745.568 12V3.432H746.648V12H745.568ZM741.116 11.088C741.804 11.088 742.312 10.956 742.64 10.692C742.968 10.428 743.132 10.028 743.132 9.492C743.132 8.94 742.952 8.556 742.592 8.34C742.24 8.116 741.696 8.004 740.96 8.004H739.76V11.088H741.116Z" fill="#3E3E3E"/>
<path d="M887.815 9.18H890.8V10.245H887.815V13.335H886.735V10.245H883.75V9.18H886.735V6.075H887.815V9.18ZM898.979 6.795C898.979 7.515 898.779 8.09 898.379 8.52C897.979 8.94 897.439 9.22 896.759 9.36V9.42C897.619 9.52 898.259 9.79 898.679 10.23C899.099 10.67 899.309 11.245 899.309 11.955C899.309 12.575 899.164 13.13 898.874 13.62C898.584 14.1 898.134 14.475 897.524 14.745C896.924 15.015 896.149 15.15 895.199 15.15C894.639 15.15 894.119 15.105 893.639 15.015C893.159 14.935 892.699 14.785 892.259 14.565V13.335C892.709 13.555 893.194 13.73 893.714 13.86C894.234 13.98 894.734 14.04 895.214 14.04C896.174 14.04 896.864 13.855 897.284 13.485C897.714 13.105 897.929 12.585 897.929 11.925C897.929 11.255 897.664 10.775 897.134 10.485C896.614 10.185 895.879 10.035 894.929 10.035H893.894V8.91H894.944C895.824 8.91 896.489 8.725 896.939 8.355C897.399 7.985 897.629 7.495 897.629 6.885C897.629 6.365 897.454 5.965 897.104 5.685C896.754 5.395 896.279 5.25 895.679 5.25C895.099 5.25 894.604 5.335 894.194 5.505C893.784 5.675 893.379 5.89 892.979 6.15L892.319 5.25C892.699 4.95 893.169 4.69 893.729 4.47C894.299 4.25 894.944 4.14 895.664 4.14C896.784 4.14 897.614 4.39 898.154 4.89C898.704 5.39 898.979 6.025 898.979 6.795ZM904.443 4.14C905.383 4.14 906.153 4.36 906.753 4.8C907.353 5.24 907.653 5.875 907.653 6.705C907.653 7.135 907.558 7.51 907.368 7.83C907.188 8.15 906.943 8.435 906.633 8.685C906.323 8.925 905.983 9.14 905.613 9.33C906.053 9.54 906.453 9.78 906.813 10.05C907.173 10.31 907.458 10.615 907.668 10.965C907.888 11.315 907.998 11.735 907.998 12.225C907.998 13.125 907.678 13.84 907.038 14.37C906.408 14.89 905.558 15.15 904.488 15.15C903.338 15.15 902.453 14.9 901.833 14.4C901.213 13.89 900.903 13.18 900.903 12.27C900.903 11.78 901.003 11.355 901.203 10.995C901.413 10.635 901.688 10.325 902.028 10.065C902.368 9.805 902.733 9.585 903.123 9.405C902.603 9.105 902.158 8.745 901.788 8.325C901.428 7.895 901.248 7.35 901.248 6.69C901.248 6.14 901.388 5.68 901.668 5.31C901.948 4.93 902.328 4.64 902.808 4.44C903.288 4.24 903.833 4.14 904.443 4.14ZM904.428 5.205C903.878 5.205 903.423 5.34 903.063 5.61C902.713 5.87 902.538 6.25 902.538 6.75C902.538 7.12 902.623 7.43 902.793 7.68C902.973 7.93 903.213 8.145 903.513 8.325C903.813 8.495 904.143 8.66 904.503 8.82C905.023 8.6 905.458 8.335 905.808 8.025C906.168 7.715 906.348 7.29 906.348 6.75C906.348 6.25 906.173 5.87 905.823 5.61C905.473 5.34 905.008 5.205 904.428 5.205ZM902.193 12.285C902.193 12.805 902.378 13.24 902.748 13.59C903.118 13.93 903.688 14.1 904.458 14.1C905.188 14.1 905.743 13.93 906.123 13.59C906.513 13.24 906.708 12.79 906.708 12.24C906.708 11.72 906.503 11.29 906.093 10.95C905.683 10.6 905.138 10.295 904.458 10.035L904.218 9.945C903.558 10.225 903.053 10.55 902.703 10.92C902.363 11.28 902.193 11.735 902.193 12.285ZM912.912 10.89C912.912 9.67 913.087 8.495 913.437 7.365C913.797 6.225 914.357 5.2 915.117 4.29H916.362C915.662 5.23 915.132 6.265 914.772 7.395C914.422 8.525 914.247 9.685 914.247 10.875C914.247 12.035 914.422 13.175 914.772 14.295C915.132 15.405 915.657 16.43 916.347 17.37H915.117C914.357 16.49 913.797 15.495 913.437 14.385C913.087 13.265 912.912 12.1 912.912 10.89ZM924.534 9.555C924.534 12.585 923.469 14.055 921.759 14.055C920.049 14.055 918.984 12.585 918.984 9.555C918.984 6.54 920.049 5.07 921.759 5.07C923.469 5.07 924.534 6.54 924.534 9.555ZM925.989 9.555C925.989 6.12 924.654 3.93 921.759 3.93C918.864 3.93 917.529 6.12 917.529 9.555C917.529 13.005 918.864 15.195 921.759 15.195C924.654 15.195 925.989 13.005 925.989 9.555ZM934.451 9.555C934.451 12.585 933.386 14.055 931.676 14.055C929.966 14.055 928.901 12.585 928.901 9.555C928.901 6.54 929.966 5.07 931.676 5.07C933.386 5.07 934.451 6.54 934.451 9.555ZM935.906 9.555C935.906 6.12 934.571 3.93 931.676 3.93C928.781 3.93 927.446 6.12 927.446 9.555C927.446 13.005 928.781 15.195 931.676 15.195C934.571 15.195 935.906 13.005 935.906 9.555ZM944.368 9.555C944.368 12.585 943.303 14.055 941.593 14.055C939.883 14.055 938.818 12.585 938.818 9.555C938.818 6.54 939.883 5.07 941.593 5.07C943.303 5.07 944.368 6.54 944.368 9.555ZM945.823 9.555C945.823 6.12 944.488 3.93 941.593 3.93C938.698 3.93 937.363 6.12 937.363 9.555C937.363 13.005 938.698 15.195 941.593 15.195C944.488 15.195 945.823 13.005 945.823 9.555ZM950.46 10.89C950.46 12.1 950.28 13.265 949.92 14.385C949.57 15.495 949.015 16.49 948.255 17.37H947.025C947.715 16.43 948.235 15.405 948.585 14.295C948.945 13.175 949.125 12.035 949.125 10.875C949.125 9.685 948.945 8.525 948.585 7.395C948.235 6.265 947.71 5.23 947.01 4.29H948.255C949.015 5.2 949.57 6.225 949.92 7.365C950.28 8.495 950.46 9.67 950.46 10.89ZM962.341 9.555C962.341 12.585 961.276 14.055 959.566 14.055C957.856 14.055 956.791 12.585 956.791 9.555C956.791 6.54 957.856 5.07 959.566 5.07C961.276 5.07 962.341 6.54 962.341 9.555ZM963.796 9.555C963.796 6.12 962.461 3.93 959.566 3.93C956.671 3.93 955.336 6.12 955.336 9.555C955.336 13.005 956.671 15.195 959.566 15.195C962.461 15.195 963.796 13.005 963.796 9.555ZM972.258 9.555C972.258 12.585 971.193 14.055 969.483 14.055C967.773 14.055 966.708 12.585 966.708 9.555C966.708 6.54 967.773 5.07 969.483 5.07C971.193 5.07 972.258 6.54 972.258 9.555ZM973.713 9.555C973.713 6.12 972.378 3.93 969.483 3.93C966.588 3.93 965.253 6.12 965.253 9.555C965.253 13.005 966.588 15.195 969.483 15.195C972.378 15.195 973.713 13.005 973.713 9.555ZM982.175 9.555C982.175 12.585 981.11 14.055 979.4 14.055C977.69 14.055 976.625 12.585 976.625 9.555C976.625 6.54 977.69 5.07 979.4 5.07C981.11 5.07 982.175 6.54 982.175 9.555ZM983.63 9.555C983.63 6.12 982.295 3.93 979.4 3.93C976.505 3.93 975.17 6.12 975.17 9.555C975.17 13.005 976.505 15.195 979.4 15.195C982.295 15.195 983.63 13.005 983.63 9.555ZM989.782 11.535V10.245H985.012V11.535H989.782ZM998.171 9.555C998.171 12.585 997.106 14.055 995.396 14.055C993.686 14.055 992.621 12.585 992.621 9.555C992.621 6.54 993.686 5.07 995.396 5.07C997.106 5.07 998.171 6.54 998.171 9.555ZM999.626 9.555C999.626 6.12 998.291 3.93 995.396 3.93C992.501 3.93 991.166 6.12 991.166 9.555C991.166 13.005 992.501 15.195 995.396 15.195C998.291 15.195 999.626 13.005 999.626 9.555ZM1008.09 9.555C1008.09 12.585 1007.02 14.055 1005.31 14.055C1003.6 14.055 1002.54 12.585 1002.54 9.555C1002.54 6.54 1003.6 5.07 1005.31 5.07C1007.02 5.07 1008.09 6.54 1008.09 9.555ZM1009.54 9.555C1009.54 6.12 1008.21 3.93 1005.31 3.93C1002.42 3.93 1001.08 6.12 1001.08 9.555C1001.08 13.005 1002.42 15.195 1005.31 15.195C1008.21 15.195 1009.54 13.005 1009.54 9.555ZM1015.7 11.535V10.245H1010.93V11.535H1015.7ZM1024.08 9.555C1024.08 12.585 1023.02 14.055 1021.31 14.055C1019.6 14.055 1018.53 12.585 1018.53 9.555C1018.53 6.54 1019.6 5.07 1021.31 5.07C1023.02 5.07 1024.08 6.54 1024.08 9.555ZM1025.54 9.555C1025.54 6.12 1024.2 3.93 1021.31 3.93C1018.41 3.93 1017.08 6.12 1017.08 9.555C1017.08 13.005 1018.41 15.195 1021.31 15.195C1024.2 15.195 1025.54 13.005 1025.54 9.555ZM1034 9.555C1034 12.585 1032.94 14.055 1031.23 14.055C1029.52 14.055 1028.45 12.585 1028.45 9.555C1028.45 6.54 1029.52 5.07 1031.23 5.07C1032.94 5.07 1034 6.54 1034 9.555ZM1035.46 9.555C1035.46 6.12 1034.12 3.93 1031.23 3.93C1028.33 3.93 1027 6.12 1027 9.555C1027 13.005 1028.33 15.195 1031.23 15.195C1034.12 15.195 1035.46 13.005 1035.46 9.555Z" fill="#3E3E3E"/>
<path d="M654.455 39V28.29H662.495V39H661.16V29.475H655.805V39H654.455ZM666.567 30.96V34.305H670.932V30.96H672.252V39H670.932V35.415H666.567V39H665.247V30.96H666.567ZM678.937 35.535V34.245H674.167V35.535H678.937ZM681.057 39V28.29H689.097V39H687.762V29.475H682.407V39H681.057ZM697.398 32.07H694.773V39H693.468V32.07H690.873V30.96H697.398V32.07ZM706.592 39H705.302V31.515C705.302 31.085 705.307 30.74 705.317 30.48C705.327 30.22 705.342 29.95 705.362 29.67C705.202 29.83 705.057 29.965 704.927 30.075C704.797 30.185 704.632 30.325 704.432 30.495L703.292 31.425L702.602 30.54L705.497 28.29H706.592V39ZM717.576 33.555C717.576 36.585 716.511 38.055 714.801 38.055C713.091 38.055 712.026 36.585 712.026 33.555C712.026 30.54 713.091 29.07 714.801 29.07C716.511 29.07 717.576 30.54 717.576 33.555ZM719.031 33.555C719.031 30.12 717.696 27.93 714.801 27.93C711.906 27.93 710.571 30.12 710.571 33.555C710.571 37.005 711.906 39.195 714.801 39.195C717.696 39.195 719.031 37.005 719.031 33.555ZM720.848 31.77C720.848 31.39 720.938 31.125 721.118 30.975C721.298 30.825 721.513 30.75 721.763 30.75C722.023 30.75 722.243 30.825 722.423 30.975C722.613 31.125 722.708 31.39 722.708 31.77C722.708 32.13 722.613 32.39 722.423 32.55C722.243 32.71 722.023 32.79 721.763 32.79C721.513 32.79 721.298 32.71 721.118 32.55C720.938 32.39 720.848 32.13 720.848 31.77ZM720.848 38.19C720.848 37.82 720.938 37.56 721.118 37.41C721.298 37.26 721.513 37.185 721.763 37.185C722.023 37.185 722.243 37.26 722.423 37.41C722.613 37.56 722.708 37.82 722.708 38.19C722.708 38.55 722.613 38.81 722.423 38.97C722.243 39.13 722.023 39.21 721.763 39.21C721.513 39.21 721.298 39.13 721.118 38.97C720.938 38.81 720.848 38.55 720.848 38.19ZM731.506 33.555C731.506 36.585 730.441 38.055 728.731 38.055C727.021 38.055 725.956 36.585 725.956 33.555C725.956 30.54 727.021 29.07 728.731 29.07C730.441 29.07 731.506 30.54 731.506 33.555ZM732.961 33.555C732.961 30.12 731.626 27.93 728.731 27.93C725.836 27.93 724.501 30.12 724.501 33.555C724.501 37.005 725.836 39.195 728.731 39.195C731.626 39.195 732.961 37.005 732.961 33.555ZM741.423 33.555C741.423 36.585 740.358 38.055 738.648 38.055C736.938 38.055 735.873 36.585 735.873 33.555C735.873 30.54 736.938 29.07 738.648 29.07C740.358 29.07 741.423 30.54 741.423 33.555ZM742.878 33.555C742.878 30.12 741.543 27.93 738.648 27.93C735.753 27.93 734.418 30.12 734.418 33.555C734.418 37.005 735.753 39.195 738.648 39.195C741.543 39.195 742.878 37.005 742.878 33.555ZM749.03 35.535V34.245H744.26V35.535H749.03ZM755.019 39H753.729V31.515C753.729 31.085 753.734 30.74 753.744 30.48C753.754 30.22 753.769 29.95 753.789 29.67C753.629 29.83 753.484 29.965 753.354 30.075C753.224 30.185 753.059 30.325 752.859 30.495L751.719 31.425L751.029 30.54L753.924 28.29H755.019V39ZM766.078 32.865C766.078 33.635 766.008 34.395 765.868 35.145C765.738 35.885 765.493 36.56 765.133 37.17C764.783 37.77 764.283 38.25 763.633 38.61C762.993 38.97 762.168 39.15 761.158 39.15C760.958 39.15 760.723 39.135 760.453 39.105C760.193 39.085 759.978 39.05 759.808 39V37.875C760.198 38.005 760.638 38.07 761.128 38.07C761.828 38.07 762.403 37.955 762.853 37.725C763.313 37.495 763.678 37.185 763.948 36.795C764.218 36.395 764.413 35.935 764.533 35.415C764.653 34.885 764.723 34.33 764.743 33.75H764.653C764.433 34.09 764.113 34.385 763.693 34.635C763.283 34.875 762.753 34.995 762.103 34.995C761.183 34.995 760.438 34.715 759.868 34.155C759.308 33.585 759.028 32.785 759.028 31.755C759.028 31.005 759.168 30.36 759.448 29.82C759.738 29.28 760.138 28.865 760.648 28.575C761.158 28.285 761.758 28.14 762.448 28.14C763.128 28.14 763.743 28.315 764.293 28.665C764.843 29.005 765.278 29.525 765.598 30.225C765.918 30.915 766.078 31.795 766.078 32.865ZM762.448 29.25C761.828 29.25 761.318 29.455 760.918 29.865C760.528 30.275 760.333 30.9 760.333 31.74C760.333 32.43 760.498 32.975 760.828 33.375C761.168 33.765 761.688 33.96 762.388 33.96C762.868 33.96 763.283 33.865 763.633 33.675C763.983 33.475 764.253 33.225 764.443 32.925C764.643 32.625 764.743 32.315 764.743 31.995C764.743 31.565 764.658 31.14 764.488 30.72C764.318 30.3 764.063 29.95 763.723 29.67C763.383 29.39 762.958 29.25 762.448 29.25ZM767.942 31.77C767.942 31.39 768.032 31.125 768.212 30.975C768.392 30.825 768.607 30.75 768.857 30.75C769.117 30.75 769.337 30.825 769.517 30.975C769.707 31.125 769.802 31.39 769.802 31.77C769.802 32.13 769.707 32.39 769.517 32.55C769.337 32.71 769.117 32.79 768.857 32.79C768.607 32.79 768.392 32.71 768.212 32.55C768.032 32.39 767.942 32.13 767.942 31.77ZM767.942 38.19C767.942 37.82 768.032 37.56 768.212 37.41C768.392 37.26 768.607 37.185 768.857 37.185C769.117 37.185 769.337 37.26 769.517 37.41C769.707 37.56 769.802 37.82 769.802 38.19C769.802 38.55 769.707 38.81 769.517 38.97C769.337 39.13 769.117 39.21 768.857 39.21C768.607 39.21 768.392 39.13 768.212 38.97C768.032 38.81 767.942 38.55 767.942 38.19ZM778.601 33.555C778.601 36.585 777.536 38.055 775.826 38.055C774.116 38.055 773.051 36.585 773.051 33.555C773.051 30.54 774.116 29.07 775.826 29.07C777.536 29.07 778.601 30.54 778.601 33.555ZM780.056 33.555C780.056 30.12 778.721 27.93 775.826 27.93C772.931 27.93 771.596 30.12 771.596 33.555C771.596 37.005 772.931 39.195 775.826 39.195C778.721 39.195 780.056 37.005 780.056 33.555ZM788.518 33.555C788.518 36.585 787.453 38.055 785.743 38.055C784.033 38.055 782.968 36.585 782.968 33.555C782.968 30.54 784.033 29.07 785.743 29.07C787.453 29.07 788.518 30.54 788.518 33.555ZM789.973 33.555C789.973 30.12 788.638 27.93 785.743 27.93C782.848 27.93 781.513 30.12 781.513 33.555C781.513 37.005 782.848 39.195 785.743 39.195C788.638 39.195 789.973 37.005 789.973 33.555Z" fill="#3E3E3E"/>
<path d="M323.8 9.63C323.8 10.74 323.61 11.71 323.23 12.54C322.86 13.36 322.31 14 321.58 14.46C320.85 14.92 319.945 15.15 318.865 15.15C317.755 15.15 316.83 14.92 316.09 14.46C315.36 14 314.815 13.355 314.455 12.525C314.095 11.695 313.915 10.725 313.915 9.615C313.915 8.515 314.095 7.555 314.455 6.735C314.815 5.915 315.36 5.275 316.09 4.815C316.83 4.355 317.76 4.125 318.88 4.125C319.95 4.125 320.85 4.355 321.58 4.815C322.31 5.265 322.86 5.905 323.23 6.735C323.61 7.555 323.8 8.52 323.8 9.63ZM315.34 9.63C315.34 10.98 315.625 12.045 316.195 12.825C316.765 13.595 317.655 13.98 318.865 13.98C320.085 13.98 320.975 13.595 321.535 12.825C322.095 12.045 322.375 10.98 322.375 9.63C322.375 8.28 322.095 7.225 321.535 6.465C320.975 5.695 320.09 5.31 318.88 5.31C317.67 5.31 316.775 5.695 316.195 6.465C315.625 7.225 315.34 8.28 315.34 9.63ZM331.544 8.07H328.919V15H327.614V8.07H325.019V6.96H331.544V8.07ZM336.086 6.81C336.776 6.81 337.366 6.96 337.856 7.26C338.356 7.56 338.736 7.985 338.996 8.535C339.266 9.075 339.401 9.71 339.401 10.44V11.235H333.896C333.916 12.145 334.146 12.84 334.586 13.32C335.036 13.79 335.661 14.025 336.461 14.025C336.971 14.025 337.421 13.98 337.811 13.89C338.211 13.79 338.621 13.65 339.041 13.47V14.625C338.631 14.805 338.226 14.935 337.826 15.015C337.426 15.105 336.951 15.15 336.401 15.15C335.641 15.15 334.966 14.995 334.376 14.685C333.796 14.375 333.341 13.915 333.011 13.305C332.691 12.685 332.531 11.93 332.531 11.04C332.531 10.16 332.676 9.405 332.966 8.775C333.266 8.145 333.681 7.66 334.211 7.32C334.751 6.98 335.376 6.81 336.086 6.81ZM336.071 7.89C335.441 7.89 334.941 8.095 334.571 8.505C334.211 8.905 333.996 9.465 333.926 10.185H338.021C338.011 9.505 337.851 8.955 337.541 8.535C337.231 8.105 336.741 7.89 336.071 7.89ZM347.568 15H346.233V8.055H343.863C343.733 9.745 343.553 11.11 343.323 12.15C343.093 13.18 342.788 13.93 342.408 14.4C342.028 14.87 341.548 15.105 340.968 15.105C340.838 15.105 340.708 15.095 340.578 15.075C340.458 15.065 340.358 15.04 340.278 15V14.01C340.338 14.03 340.403 14.045 340.473 14.055C340.543 14.065 340.613 14.07 340.683 14.07C341.223 14.07 341.653 13.495 341.973 12.345C342.303 11.195 342.553 9.4 342.723 6.96H347.568V15ZM351.365 11.865C351.365 11.985 351.36 12.165 351.35 12.405C351.34 12.645 351.325 12.885 351.305 13.125C351.295 13.365 351.285 13.555 351.275 13.695L355.58 6.96H357.2V15H355.97V10.26C355.97 10.1 355.97 9.89 355.97 9.63C355.98 9.37 355.99 9.115 356 8.865C356.01 8.605 356.02 8.41 356.03 8.28L351.755 15H350.12V6.96H351.365V11.865Z" fill="#3E3E3E"/>
<path d="M504.175 15L502.885 11.685H498.64L497.365 15H496L500.185 4.245H501.4L505.57 15H504.175ZM501.28 7.245C501.25 7.165 501.2 7.02 501.13 6.81C501.06 6.6 500.99 6.385 500.92 6.165C500.86 5.935 500.81 5.76 500.77 5.64C500.7 5.95 500.62 6.255 500.53 6.555C500.44 6.845 500.365 7.075 500.305 7.245L499.09 10.485H502.48L501.28 7.245ZM511.76 6.96V8.07H508.175V15H506.855V6.96H511.76ZM516.303 6.81C516.993 6.81 517.583 6.96 518.073 7.26C518.573 7.56 518.953 7.985 519.213 8.535C519.483 9.075 519.618 9.71 519.618 10.44V11.235H514.113C514.133 12.145 514.363 12.84 514.803 13.32C515.253 13.79 515.878 14.025 516.678 14.025C517.188 14.025 517.638 13.98 518.028 13.89C518.428 13.79 518.838 13.65 519.258 13.47V14.625C518.848 14.805 518.443 14.935 518.043 15.015C517.643 15.105 517.168 15.15 516.618 15.15C515.858 15.15 515.183 14.995 514.593 14.685C514.013 14.375 513.558 13.915 513.228 13.305C512.908 12.685 512.748 11.93 512.748 11.04C512.748 10.16 512.893 9.405 513.183 8.775C513.483 8.145 513.898 7.66 514.428 7.32C514.968 6.98 515.593 6.81 516.303 6.81ZM516.288 7.89C515.658 7.89 515.158 8.095 514.788 8.505C514.428 8.905 514.213 9.465 514.143 10.185H518.238C518.228 9.505 518.068 8.955 517.758 8.535C517.448 8.105 516.958 7.89 516.288 7.89ZM522.985 6.96V10.305H527.35V6.96H528.67V15H527.35V11.415H522.985V15H521.665V6.96H522.985ZM536.765 8.07H534.14V15H532.835V8.07H530.24V6.96H536.765V8.07ZM541.394 6.825C542.374 6.825 543.099 7.04 543.569 7.47C544.039 7.9 544.274 8.585 544.274 9.525V15H543.314L543.059 13.86H542.999C542.649 14.3 542.279 14.625 541.889 14.835C541.509 15.045 540.979 15.15 540.299 15.15C539.569 15.15 538.964 14.96 538.484 14.58C538.004 14.19 537.764 13.585 537.764 12.765C537.764 11.965 538.079 11.35 538.709 10.92C539.339 10.48 540.309 10.24 541.619 10.2L542.984 10.155V9.675C542.984 9.005 542.839 8.54 542.549 8.28C542.259 8.02 541.849 7.89 541.319 7.89C540.899 7.89 540.499 7.955 540.119 8.085C539.739 8.205 539.384 8.345 539.054 8.505L538.649 7.515C538.999 7.325 539.414 7.165 539.894 7.035C540.374 6.895 540.874 6.825 541.394 6.825ZM541.784 11.115C540.784 11.155 540.089 11.315 539.699 11.595C539.319 11.875 539.129 12.27 539.129 12.78C539.129 13.23 539.264 13.56 539.534 13.77C539.814 13.98 540.169 14.085 540.599 14.085C541.279 14.085 541.844 13.9 542.294 13.53C542.744 13.15 542.969 12.57 542.969 11.79V11.07L541.784 11.115ZM555.382 6.96V15H554.197V9.87C554.197 9.66 554.202 9.44 554.212 9.21C554.232 8.98 554.252 8.755 554.272 8.535H554.227L551.602 15H550.492L547.942 8.535H547.897C547.927 8.985 547.942 9.445 547.942 9.915V15H546.757V6.96H548.512L551.047 13.425L553.627 6.96H555.382Z" fill="#3E3E3E"/>
<path d="M319.045 29.325C317.895 29.325 316.99 29.71 316.33 30.48C315.67 31.25 315.34 32.305 315.34 33.645C315.34 34.975 315.645 36.03 316.255 36.81C316.875 37.58 317.8 37.965 319.03 37.965C319.5 37.965 319.945 37.925 320.365 37.845C320.785 37.765 321.195 37.665 321.595 37.545V38.715C321.195 38.865 320.78 38.975 320.35 39.045C319.93 39.115 319.425 39.15 318.835 39.15C317.745 39.15 316.835 38.925 316.105 38.475C315.375 38.025 314.825 37.385 314.455 36.555C314.095 35.725 313.915 34.75 313.915 33.63C313.915 32.55 314.11 31.6 314.5 30.78C314.9 29.95 315.485 29.305 316.255 28.845C317.025 28.375 317.96 28.14 319.06 28.14C320.19 28.14 321.175 28.35 322.015 28.77L321.475 29.91C321.145 29.76 320.775 29.625 320.365 29.505C319.965 29.385 319.525 29.325 319.045 29.325ZM329.303 32.07H326.678V39H325.373V32.07H322.778V30.96H329.303V32.07ZM334.711 30.81C335.701 30.81 336.496 31.155 337.096 31.845C337.706 32.535 338.011 33.575 338.011 34.965C338.011 36.335 337.706 37.375 337.096 38.085C336.496 38.795 335.696 39.15 334.696 39.15C334.076 39.15 333.561 39.035 333.151 38.805C332.751 38.565 332.436 38.29 332.206 37.98H332.116C332.136 38.15 332.156 38.365 332.176 38.625C332.196 38.885 332.206 39.11 332.206 39.3V42.6H330.886V30.96H331.966L332.146 32.055H332.206C332.446 31.705 332.761 31.41 333.151 31.17C333.541 30.93 334.061 30.81 334.711 30.81ZM334.471 31.92C333.651 31.92 333.071 32.15 332.731 32.61C332.401 33.07 332.226 33.77 332.206 34.71V34.965C332.206 35.955 332.366 36.72 332.686 37.26C333.016 37.79 333.621 38.055 334.501 38.055C334.991 38.055 335.391 37.92 335.701 37.65C336.021 37.38 336.256 37.015 336.406 36.555C336.566 36.085 336.646 35.55 336.646 34.95C336.646 34.03 336.466 33.295 336.106 32.745C335.756 32.195 335.211 31.92 334.471 31.92ZM343.16 30.825C344.14 30.825 344.865 31.04 345.335 31.47C345.805 31.9 346.04 32.585 346.04 33.525V39H345.08L344.825 37.86H344.765C344.415 38.3 344.045 38.625 343.655 38.835C343.275 39.045 342.745 39.15 342.065 39.15C341.335 39.15 340.73 38.96 340.25 38.58C339.77 38.19 339.53 37.585 339.53 36.765C339.53 35.965 339.845 35.35 340.475 34.92C341.105 34.48 342.075 34.24 343.385 34.2L344.75 34.155V33.675C344.75 33.005 344.605 32.54 344.315 32.28C344.025 32.02 343.615 31.89 343.085 31.89C342.665 31.89 342.265 31.955 341.885 32.085C341.505 32.205 341.15 32.345 340.82 32.505L340.415 31.515C340.765 31.325 341.18 31.165 341.66 31.035C342.14 30.895 342.64 30.825 343.16 30.825ZM343.55 35.115C342.55 35.155 341.855 35.315 341.465 35.595C341.085 35.875 340.895 36.27 340.895 36.78C340.895 37.23 341.03 37.56 341.3 37.77C341.58 37.98 341.935 38.085 342.365 38.085C343.045 38.085 343.61 37.9 344.06 37.53C344.51 37.15 344.735 36.57 344.735 35.79V35.07L343.55 35.115ZM349.843 30.96V34.305H354.208V30.96H355.528V39H354.208V35.415H349.843V39H348.523V30.96H349.843ZM358.074 39V30.96H359.394V34.26H361.479C362.519 34.26 363.289 34.45 363.789 34.83C364.289 35.21 364.539 35.78 364.539 36.54C364.539 37.29 364.294 37.89 363.804 38.34C363.314 38.78 362.519 39 361.419 39H358.074ZM365.874 39V30.96H367.194V39H365.874ZM361.299 37.935C361.869 37.935 362.334 37.84 362.694 37.65C363.054 37.45 363.234 37.105 363.234 36.615C363.234 36.125 363.069 35.795 362.739 35.625C362.409 35.445 361.934 35.355 361.314 35.355H359.394V37.935H361.299Z" fill="#3E3E3E"/>
<path d="M506.8 33.63C506.8 34.74 506.61 35.71 506.23 36.54C505.86 37.36 505.31 38 504.58 38.46C503.85 38.92 502.945 39.15 501.865 39.15C500.755 39.15 499.83 38.92 499.09 38.46C498.36 38 497.815 37.355 497.455 36.525C497.095 35.695 496.915 34.725 496.915 33.615C496.915 32.515 497.095 31.555 497.455 30.735C497.815 29.915 498.36 29.275 499.09 28.815C499.83 28.355 500.76 28.125 501.88 28.125C502.95 28.125 503.85 28.355 504.58 28.815C505.31 29.265 505.86 29.905 506.23 30.735C506.61 31.555 506.8 32.52 506.8 33.63ZM498.34 33.63C498.34 34.98 498.625 36.045 499.195 36.825C499.765 37.595 500.655 37.98 501.865 37.98C503.085 37.98 503.975 37.595 504.535 36.825C505.095 36.045 505.375 34.98 505.375 33.63C505.375 32.28 505.095 31.225 504.535 30.465C503.975 29.695 503.09 29.31 501.88 29.31C500.67 29.31 499.775 29.695 499.195 30.465C498.625 31.225 498.34 32.28 498.34 33.63ZM513.873 30.96V34.305H518.238V30.96H519.558V39H518.238V35.415H513.873V39H512.553V30.96H513.873ZM525.149 30.825C526.129 30.825 526.854 31.04 527.324 31.47C527.794 31.9 528.029 32.585 528.029 33.525V39H527.069L526.814 37.86H526.754C526.404 38.3 526.034 38.625 525.644 38.835C525.264 39.045 524.734 39.15 524.054 39.15C523.324 39.15 522.719 38.96 522.239 38.58C521.759 38.19 521.519 37.585 521.519 36.765C521.519 35.965 521.834 35.35 522.464 34.92C523.094 34.48 524.064 34.24 525.374 34.2L526.739 34.155V33.675C526.739 33.005 526.594 32.54 526.304 32.28C526.014 32.02 525.604 31.89 525.074 31.89C524.654 31.89 524.254 31.955 523.874 32.085C523.494 32.205 523.139 32.345 522.809 32.505L522.404 31.515C522.754 31.325 523.169 31.165 523.649 31.035C524.129 30.895 524.629 30.825 525.149 30.825ZM525.539 35.115C524.539 35.155 523.844 35.315 523.454 35.595C523.074 35.875 522.884 36.27 522.884 36.78C522.884 37.23 523.019 37.56 523.289 37.77C523.569 37.98 523.924 38.085 524.354 38.085C525.034 38.085 525.599 37.9 526.049 37.53C526.499 37.15 526.724 36.57 526.724 35.79V35.07L525.539 35.115ZM533.737 39.15C533.027 39.15 532.392 39.005 531.832 38.715C531.282 38.425 530.847 37.975 530.527 37.365C530.217 36.755 530.062 35.975 530.062 35.025C530.062 34.035 530.227 33.23 530.557 32.61C530.887 31.99 531.332 31.535 531.892 31.245C532.462 30.955 533.107 30.81 533.827 30.81C534.237 30.81 534.632 30.855 535.012 30.945C535.392 31.025 535.702 31.125 535.942 31.245L535.537 32.34C535.297 32.25 535.017 32.165 534.697 32.085C534.377 32.005 534.077 31.965 533.797 31.965C532.217 31.965 531.427 32.98 531.427 35.01C531.427 35.98 531.617 36.725 531.997 37.245C532.387 37.755 532.962 38.01 533.722 38.01C534.162 38.01 534.547 37.965 534.877 37.875C535.217 37.785 535.527 37.675 535.807 37.545V38.715C535.537 38.855 535.237 38.96 534.907 39.03C534.587 39.11 534.197 39.15 533.737 39.15Z" fill="#3E3E3E"/>
<path d="M320.44 63L323.44 53.52V63H324.97V52.125H322.405L319.63 61.185L316.855 52.125H314.29V63H315.82V53.52L318.82 63H320.44ZM332.422 59.625C332.422 61.53 331.207 62.115 329.932 62.115C328.957 62.115 328.372 61.605 328.372 60.84C328.372 59.73 329.947 59.37 332.422 59.115V59.625ZM329.632 63.195C331.057 63.195 331.897 62.715 332.392 61.89C332.407 62.37 332.452 62.7 332.497 63H333.877C333.727 62.235 333.652 61.305 333.667 59.955L333.682 58.095C333.697 55.83 332.692 54.765 330.472 54.765C328.897 54.765 327.367 55.74 327.232 57.48H328.642C328.702 56.49 329.362 55.875 330.487 55.875C331.492 55.875 332.317 56.37 332.317 57.84V58.035C329.002 58.41 326.857 58.965 326.857 60.87C326.857 62.355 328.117 63.195 329.632 63.195ZM335.716 54.93V63H337.081V54.93H335.716ZM335.716 52.125V53.775H337.081V52.125H335.716ZM345.291 57.285C345.036 55.755 343.851 54.78 342.111 54.78C340.326 54.78 338.886 55.605 338.886 57.03C338.886 58.53 340.086 59.04 341.181 59.265L342.381 59.505C343.251 59.685 344.016 60.03 344.016 60.84C344.016 61.59 343.176 62.04 342.141 62.04C340.941 62.04 340.296 61.425 340.086 60.39H338.646C338.796 61.8 339.996 63.195 342.111 63.195C343.956 63.195 345.396 62.28 345.396 60.69C345.396 59.13 344.106 58.575 342.636 58.29L341.496 58.065C340.716 57.915 340.266 57.615 340.266 56.97C340.266 56.235 341.166 55.95 341.961 55.95C342.906 55.95 343.656 56.325 343.866 57.285H345.291ZM347.517 54.93H346.242V56.025H347.517V60.975C347.517 62.655 347.877 63 349.422 63H350.412V61.86H349.722C348.942 61.86 348.882 61.65 348.882 60.81V56.025H350.412V54.93H348.882V52.905H347.517V54.93ZM356.025 54.9C355.875 54.885 355.755 54.885 355.62 54.885C354.57 54.915 353.745 55.425 353.34 56.34V54.93H352.005V63H353.37V58.77C353.37 57 354 56.295 355.26 56.295C355.485 56.295 355.74 56.325 356.025 56.355V54.9ZM362.129 59.625C362.129 61.53 360.914 62.115 359.639 62.115C358.664 62.115 358.079 61.605 358.079 60.84C358.079 59.73 359.654 59.37 362.129 59.115V59.625ZM359.339 63.195C360.764 63.195 361.604 62.715 362.099 61.89C362.114 62.37 362.159 62.7 362.204 63H363.584C363.434 62.235 363.359 61.305 363.374 59.955L363.389 58.095C363.404 55.83 362.399 54.765 360.179 54.765C358.604 54.765 357.074 55.74 356.939 57.48H358.349C358.409 56.49 359.069 55.875 360.194 55.875C361.199 55.875 362.024 56.37 362.024 57.84V58.035C358.709 58.41 356.564 58.965 356.564 60.87C356.564 62.355 357.824 63.195 359.339 63.195ZM369.912 58.995C369.912 56.79 371.097 55.995 372.327 55.995C373.557 55.995 374.742 56.85 374.742 58.995C374.742 61.065 373.557 61.995 372.327 61.995C371.097 61.995 369.912 61.14 369.912 58.995ZM372.327 54.795C370.452 54.795 368.457 56.07 368.457 58.995C368.457 61.92 370.452 63.195 372.327 63.195C374.202 63.195 376.197 61.92 376.197 58.995C376.197 56.07 374.202 54.795 372.327 54.795ZM379.195 54.93H377.83V63H379.195V58.62C379.195 56.895 380.005 55.98 381.325 55.98C382.885 55.98 383.095 57.06 383.095 58.305V63H384.46V57.9C384.46 56.055 383.755 54.795 381.805 54.795C380.44 54.795 379.66 55.38 379.195 56.145V54.93ZM387.867 52.125H386.502V63H387.867V52.125ZM390.032 54.93V63H391.397V54.93H390.032ZM390.032 52.125V53.775H391.397V52.125H390.032ZM394.927 54.93H393.562V63H394.927V58.62C394.927 56.895 395.737 55.98 397.057 55.98C398.617 55.98 398.827 57.06 398.827 58.305V63H400.192V57.9C400.192 56.055 399.487 54.795 397.537 54.795C396.172 54.795 395.392 55.38 394.927 56.145V54.93ZM409.359 59.415C409.539 56.865 408.054 54.795 405.594 54.795C403.389 54.795 401.679 56.43 401.679 58.98C401.679 61.365 403.089 63.195 405.639 63.195C407.604 63.195 408.879 62.055 409.254 60.66H407.844C407.499 61.455 406.839 61.995 405.639 61.995C404.439 61.995 403.209 61.155 403.149 59.415H409.359ZM405.594 55.965C407.034 55.965 407.889 57.105 407.919 58.245H403.164C403.284 56.625 404.379 55.965 405.594 55.965Z" fill="#3E3E3E"/>
<path d="M497.455 63V52.29H503.815V53.475H498.805V56.82H500.395C501.465 56.82 502.295 56.955 502.885 57.225C503.475 57.485 503.885 57.845 504.115 58.305C504.345 58.755 504.46 59.275 504.46 59.865C504.46 60.845 504.165 61.615 503.575 62.175C502.985 62.725 501.99 63 500.59 63H497.455ZM500.455 61.845C501.415 61.845 502.09 61.685 502.48 61.365C502.87 61.035 503.065 60.535 503.065 59.865C503.065 59.175 502.85 58.69 502.42 58.41C501.99 58.13 501.26 57.99 500.23 57.99H498.805V61.845H500.455ZM512.624 63H511.289V56.055H508.919C508.789 57.745 508.609 59.11 508.379 60.15C508.149 61.18 507.844 61.93 507.464 62.4C507.084 62.87 506.604 63.105 506.024 63.105C505.894 63.105 505.764 63.095 505.634 63.075C505.514 63.065 505.414 63.04 505.334 63V62.01C505.394 62.03 505.459 62.045 505.529 62.055C505.599 62.065 505.669 62.07 505.739 62.07C506.279 62.07 506.709 61.495 507.029 60.345C507.359 59.195 507.609 57.4 507.779 54.96H512.624V63ZM522.165 58.965C522.165 60.295 521.825 61.325 521.145 62.055C520.475 62.785 519.565 63.15 518.415 63.15C517.705 63.15 517.07 62.99 516.51 62.67C515.96 62.34 515.525 61.865 515.205 61.245C514.885 60.615 514.725 59.855 514.725 58.965C514.725 57.635 515.06 56.61 515.73 55.89C516.4 55.17 517.31 54.81 518.46 54.81C519.19 54.81 519.83 54.975 520.38 55.305C520.94 55.625 521.375 56.095 521.685 56.715C522.005 57.325 522.165 58.075 522.165 58.965ZM516.09 58.965C516.09 59.915 516.275 60.67 516.645 61.23C517.025 61.78 517.625 62.055 518.445 62.055C519.255 62.055 519.85 61.78 520.23 61.23C520.61 60.67 520.8 59.915 520.8 58.965C520.8 58.015 520.61 57.27 520.23 56.73C519.85 56.19 519.25 55.92 518.43 55.92C517.61 55.92 517.015 56.19 516.645 56.73C516.275 57.27 516.09 58.015 516.09 58.965ZM529.162 54.96V56.07H525.577V63H524.257V54.96H529.162Z" fill="#3E3E3E"/>
<path d="M317.845 87H316.495V77.475H313.15V76.29H321.175V77.475H317.845V87ZM320.749 78.96H322.159L323.899 83.535C324.049 83.935 324.184 84.32 324.304 84.69C324.424 85.05 324.514 85.395 324.574 85.725H324.634C324.694 85.475 324.789 85.15 324.919 84.75C325.049 84.34 325.184 83.93 325.324 83.52L326.959 78.96H328.384L324.919 88.11C324.639 88.87 324.274 89.475 323.824 89.925C323.384 90.375 322.774 90.6 321.994 90.6C321.754 90.6 321.544 90.585 321.364 90.555C321.184 90.535 321.029 90.51 320.899 90.48V89.43C321.009 89.45 321.139 89.47 321.289 89.49C321.449 89.51 321.614 89.52 321.784 89.52C322.244 89.52 322.614 89.39 322.894 89.13C323.184 88.87 323.409 88.525 323.569 88.095L323.989 87.03L320.749 78.96ZM333.481 78.81C334.471 78.81 335.266 79.155 335.866 79.845C336.476 80.535 336.781 81.575 336.781 82.965C336.781 84.335 336.476 85.375 335.866 86.085C335.266 86.795 334.466 87.15 333.466 87.15C332.846 87.15 332.331 87.035 331.921 86.805C331.521 86.565 331.206 86.29 330.976 85.98H330.886C330.906 86.15 330.926 86.365 330.946 86.625C330.966 86.885 330.976 87.11 330.976 87.3V90.6H329.656V78.96H330.736L330.916 80.055H330.976C331.216 79.705 331.531 79.41 331.921 79.17C332.311 78.93 332.831 78.81 333.481 78.81ZM333.241 79.92C332.421 79.92 331.841 80.15 331.501 80.61C331.171 81.07 330.996 81.77 330.976 82.71V82.965C330.976 83.955 331.136 84.72 331.456 85.26C331.786 85.79 332.391 86.055 333.271 86.055C333.761 86.055 334.161 85.92 334.471 85.65C334.791 85.38 335.026 85.015 335.176 84.555C335.336 84.085 335.416 83.55 335.416 82.95C335.416 82.03 335.236 81.295 334.876 80.745C334.526 80.195 333.981 79.92 333.241 79.92ZM338.884 87V78.96H340.204V82.26H342.289C343.329 82.26 344.099 82.45 344.599 82.83C345.099 83.21 345.349 83.78 345.349 84.54C345.349 85.29 345.104 85.89 344.614 86.34C344.124 86.78 343.329 87 342.229 87H338.884ZM346.684 87V78.96H348.004V87H346.684ZM342.109 85.935C342.679 85.935 343.144 85.84 343.504 85.65C343.864 85.45 344.044 85.105 344.044 84.615C344.044 84.125 343.879 83.795 343.549 83.625C343.219 83.445 342.744 83.355 342.124 83.355H340.204V85.935H342.109ZM354.854 82.995C354.854 80.79 356.039 79.995 357.269 79.995C358.499 79.995 359.684 80.85 359.684 82.995C359.684 85.065 358.499 85.995 357.269 85.995C356.039 85.995 354.854 85.14 354.854 82.995ZM357.269 78.795C355.394 78.795 353.399 80.07 353.399 82.995C353.399 85.92 355.394 87.195 357.269 87.195C359.144 87.195 361.139 85.92 361.139 82.995C361.139 80.07 359.144 78.795 357.269 78.795ZM364.136 78.93H362.771V87H364.136V82.62C364.136 80.895 364.946 79.98 366.266 79.98C367.826 79.98 368.036 81.06 368.036 82.305V87H369.401V81.9C369.401 80.055 368.696 78.795 366.746 78.795C365.381 78.795 364.601 79.38 364.136 80.145V78.93ZM372.808 76.125H371.443V87H372.808V76.125ZM374.974 78.93V87H376.339V78.93H374.974ZM374.974 76.125V77.775H376.339V76.125H374.974ZM379.869 78.93H378.504V87H379.869V82.62C379.869 80.895 380.679 79.98 381.999 79.98C383.559 79.98 383.769 81.06 383.769 82.305V87H385.134V81.9C385.134 80.055 384.429 78.795 382.479 78.795C381.114 78.795 380.334 79.38 379.869 80.145V78.93ZM394.301 83.415C394.481 80.865 392.996 78.795 390.536 78.795C388.331 78.795 386.621 80.43 386.621 82.98C386.621 85.365 388.031 87.195 390.581 87.195C392.546 87.195 393.821 86.055 394.196 84.66H392.786C392.441 85.455 391.781 85.995 390.581 85.995C389.381 85.995 388.151 85.155 388.091 83.415H394.301ZM390.536 79.965C391.976 79.965 392.831 81.105 392.861 82.245H388.106C388.226 80.625 389.321 79.965 390.536 79.965Z" fill="#3E3E3E"/>
<path d="M7.28 168H0.672V166.978L3.29 164.332C3.794 163.828 4.21867 163.38 4.564 162.988C4.90933 162.596 5.17067 162.213 5.348 161.84C5.52533 161.457 5.614 161.042 5.614 160.594C5.614 160.043 5.45067 159.628 5.124 159.348C4.79733 159.059 4.37267 158.914 3.85 158.914C3.36467 158.914 2.93533 158.998 2.562 159.166C2.198 159.334 1.82467 159.567 1.442 159.866L0.784 159.04C1.176 158.713 1.624 158.438 2.128 158.214C2.64133 157.981 3.21533 157.864 3.85 157.864C4.78333 157.864 5.52067 158.102 6.062 158.578C6.60333 159.045 6.874 159.693 6.874 160.524C6.874 161.047 6.76667 161.537 6.552 161.994C6.33733 162.451 6.03867 162.904 5.656 163.352C5.27333 163.791 4.82533 164.262 4.312 164.766L2.226 166.824V166.88H7.28V168ZM15.2217 162.918C15.2217 165.746 14.2277 167.118 12.6317 167.118C11.0357 167.118 10.0417 165.746 10.0417 162.918C10.0417 160.104 11.0357 158.732 12.6317 158.732C14.2277 158.732 15.2217 160.104 15.2217 162.918ZM16.5797 162.918C16.5797 159.712 15.3337 157.668 12.6317 157.668C9.92972 157.668 8.68372 159.712 8.68372 162.918C8.68372 166.138 9.92972 168.182 12.6317 168.182C15.3337 168.182 16.5797 166.138 16.5797 162.918ZM24.4776 162.918C24.4776 165.746 23.4836 167.118 21.8876 167.118C20.2916 167.118 19.2976 165.746 19.2976 162.918C19.2976 160.104 20.2916 158.732 21.8876 158.732C23.4836 158.732 24.4776 160.104 24.4776 162.918ZM25.8356 162.918C25.8356 159.712 24.5896 157.668 21.8876 157.668C19.1856 157.668 17.9396 159.712 17.9396 162.918C17.9396 166.138 19.1856 168.182 21.8876 168.182C24.5896 168.182 25.8356 166.138 25.8356 162.918ZM33.8034 168H27.1954V166.978L29.8134 164.332C30.3174 163.828 30.7421 163.38 31.0874 162.988C31.4328 162.596 31.6941 162.213 31.8714 161.84C32.0488 161.457 32.1374 161.042 32.1374 160.594C32.1374 160.043 31.9741 159.628 31.6474 159.348C31.3208 159.059 30.8961 158.914 30.3734 158.914C29.8881 158.914 29.4588 158.998 29.0854 159.166C28.7214 159.334 28.3481 159.567 27.9654 159.866L27.3074 159.04C27.6994 158.713 28.1474 158.438 28.6514 158.214C29.1648 157.981 29.7388 157.864 30.3734 157.864C31.3068 157.864 32.0441 158.102 32.5854 158.578C33.1268 159.045 33.3974 159.693 33.3974 160.524C33.3974 161.047 33.2901 161.537 33.0754 161.994C32.8608 162.451 32.5621 162.904 32.1794 163.352C31.7968 163.791 31.3488 164.262 30.8354 164.766L28.7494 166.824V166.88H33.8034V168ZM39.5892 164.766V163.562H35.1372V164.766H39.5892ZM47.489 168H40.881V166.978L43.499 164.332C44.003 163.828 44.4277 163.38 44.773 162.988C45.1183 162.596 45.3797 162.213 45.557 161.84C45.7343 161.457 45.823 161.042 45.823 160.594C45.823 160.043 45.6597 159.628 45.333 159.348C45.0063 159.059 44.5817 158.914 44.059 158.914C43.5737 158.914 43.1443 158.998 42.771 159.166C42.407 159.334 42.0337 159.567 41.651 159.866L40.993 159.04C41.385 158.713 41.833 158.438 42.337 158.214C42.8503 157.981 43.4243 157.864 44.059 157.864C44.9923 157.864 45.7297 158.102 46.271 158.578C46.8123 159.045 47.083 159.693 47.083 160.524C47.083 161.047 46.9757 161.537 46.761 161.994C46.5463 162.451 46.2477 162.904 45.865 163.352C45.4823 163.791 45.0343 164.262 44.521 164.766L42.435 166.824V166.88H47.489V168ZM55.4307 162.918C55.4307 165.746 54.4367 167.118 52.8407 167.118C51.2447 167.118 50.2507 165.746 50.2507 162.918C50.2507 160.104 51.2447 158.732 52.8407 158.732C54.4367 158.732 55.4307 160.104 55.4307 162.918ZM56.7887 162.918C56.7887 159.712 55.5427 157.668 52.8407 157.668C50.1387 157.668 48.8927 159.712 48.8927 162.918C48.8927 166.138 50.1387 168.182 52.8407 168.182C55.5427 168.182 56.7887 166.138 56.7887 162.918ZM64.7566 168H58.1486V166.978L60.7666 164.332C61.2706 163.828 61.6952 163.38 62.0406 162.988C62.3859 162.596 62.6472 162.213 62.8246 161.84C63.0019 161.457 63.0906 161.042 63.0906 160.594C63.0906 160.043 62.9272 159.628 62.6006 159.348C62.2739 159.059 61.8492 158.914 61.3266 158.914C60.8412 158.914 60.4119 158.998 60.0386 159.166C59.6746 159.334 59.3012 159.567 58.9186 159.866L58.2606 159.04C58.6526 158.713 59.1006 158.438 59.6046 158.214C60.1179 157.981 60.6919 157.864 61.3266 157.864C62.2599 157.864 62.9972 158.102 63.5386 158.578C64.0799 159.045 64.3506 159.693 64.3506 160.524C64.3506 161.047 64.2432 161.537 64.0286 161.994C63.8139 162.451 63.5152 162.904 63.1326 163.352C62.7499 163.791 62.3019 164.262 61.7886 164.766L59.7026 166.824V166.88H64.7566V168ZM70.4583 168H69.2543V161.014C69.2543 160.613 69.2589 160.291 69.2683 160.048C69.2776 159.805 69.2916 159.553 69.3103 159.292C69.1609 159.441 69.0256 159.567 68.9043 159.67C68.7829 159.773 68.6289 159.903 68.4423 160.062L67.3783 160.93L66.7343 160.104L69.4363 158.004H70.4583V168ZM81.3443 168H80.0843V159.11H76.9623V158.004H84.4523V159.11H81.3443V168ZM84.055 160.496H85.371L86.995 164.766C87.135 165.139 87.261 165.499 87.373 165.844C87.485 166.18 87.569 166.502 87.625 166.81H87.681C87.737 166.577 87.8257 166.273 87.947 165.9C88.0683 165.517 88.1943 165.135 88.325 164.752L89.851 160.496H91.181L87.947 169.036C87.6857 169.745 87.345 170.31 86.925 170.73C86.5143 171.15 85.945 171.36 85.217 171.36C84.993 171.36 84.797 171.346 84.629 171.318C84.461 171.299 84.3163 171.276 84.195 171.248V170.268C84.2977 170.287 84.419 170.305 84.559 170.324C84.7083 170.343 84.8623 170.352 85.021 170.352C85.4503 170.352 85.7957 170.231 86.057 169.988C86.3277 169.745 86.5377 169.423 86.687 169.022L87.079 168.028L84.055 160.496ZM95.9377 160.356C96.8617 160.356 97.6037 160.678 98.1637 161.322C98.7331 161.966 99.0177 162.937 99.0177 164.234C99.0177 165.513 98.7331 166.483 98.1637 167.146C97.6037 167.809 96.8571 168.14 95.9237 168.14C95.3451 168.14 94.8644 168.033 94.4817 167.818C94.1084 167.594 93.8144 167.337 93.5997 167.048H93.5157C93.5344 167.207 93.5531 167.407 93.5717 167.65C93.5904 167.893 93.5997 168.103 93.5997 168.28V171.36H92.3677V160.496H93.3757L93.5437 161.518H93.5997C93.8237 161.191 94.1177 160.916 94.4817 160.692C94.8457 160.468 95.3311 160.356 95.9377 160.356ZM95.7137 161.392C94.9484 161.392 94.4071 161.607 94.0897 162.036C93.7817 162.465 93.6184 163.119 93.5997 163.996V164.234C93.5997 165.158 93.7491 165.872 94.0477 166.376C94.3557 166.871 94.9204 167.118 95.7417 167.118C96.1991 167.118 96.5724 166.992 96.8617 166.74C97.1604 166.488 97.3797 166.147 97.5197 165.718C97.6691 165.279 97.7437 164.78 97.7437 164.22C97.7437 163.361 97.5757 162.675 97.2397 162.162C96.9131 161.649 96.4044 161.392 95.7137 161.392ZM107.505 164.234C107.505 165.475 107.188 166.437 106.553 167.118C105.928 167.799 105.078 168.14 104.005 168.14C103.342 168.14 102.75 167.991 102.227 167.692C101.714 167.384 101.308 166.941 101.009 166.362C100.71 165.774 100.561 165.065 100.561 164.234C100.561 162.993 100.874 162.036 101.499 161.364C102.124 160.692 102.974 160.356 104.047 160.356C104.728 160.356 105.326 160.51 105.839 160.818C106.362 161.117 106.768 161.555 107.057 162.134C107.356 162.703 107.505 163.403 107.505 164.234ZM101.835 164.234C101.835 165.121 102.008 165.825 102.353 166.348C102.708 166.861 103.268 167.118 104.033 167.118C104.789 167.118 105.344 166.861 105.699 166.348C106.054 165.825 106.231 165.121 106.231 164.234C106.231 163.347 106.054 162.652 105.699 162.148C105.344 161.644 104.784 161.392 104.019 161.392C103.254 161.392 102.698 161.644 102.353 162.148C102.008 162.652 101.835 163.347 101.835 164.234ZM115.8 160.496V168H114.568V161.546H110.69V168H109.458V160.496H115.8ZM121.092 160.356C121.736 160.356 122.287 160.496 122.744 160.776C123.211 161.056 123.565 161.453 123.808 161.966C124.06 162.47 124.186 163.063 124.186 163.744V164.486H119.048C119.067 165.335 119.281 165.984 119.692 166.432C120.112 166.871 120.695 167.09 121.442 167.09C121.918 167.09 122.338 167.048 122.702 166.964C123.075 166.871 123.458 166.74 123.85 166.572V167.65C123.467 167.818 123.089 167.939 122.716 168.014C122.343 168.098 121.899 168.14 121.386 168.14C120.677 168.14 120.047 167.995 119.496 167.706C118.955 167.417 118.53 166.987 118.222 166.418C117.923 165.839 117.774 165.135 117.774 164.304C117.774 163.483 117.909 162.778 118.18 162.19C118.46 161.602 118.847 161.149 119.342 160.832C119.846 160.515 120.429 160.356 121.092 160.356ZM121.078 161.364C120.49 161.364 120.023 161.555 119.678 161.938C119.342 162.311 119.141 162.834 119.076 163.506H122.898C122.889 162.871 122.739 162.358 122.45 161.966C122.161 161.565 121.703 161.364 121.078 161.364ZM129.666 160.356C130.59 160.356 131.332 160.678 131.892 161.322C132.462 161.966 132.746 162.937 132.746 164.234C132.746 165.513 132.462 166.483 131.892 167.146C131.332 167.809 130.586 168.14 129.652 168.14C129.074 168.14 128.593 168.033 128.21 167.818C127.837 167.594 127.543 167.337 127.328 167.048H127.244C127.263 167.207 127.282 167.407 127.3 167.65C127.319 167.893 127.328 168.103 127.328 168.28V171.36H126.096V160.496H127.104L127.272 161.518H127.328C127.552 161.191 127.846 160.916 128.21 160.692C128.574 160.468 129.06 160.356 129.666 160.356ZM129.442 161.392C128.677 161.392 128.136 161.607 127.818 162.036C127.51 162.465 127.347 163.119 127.328 163.996V164.234C127.328 165.158 127.478 165.872 127.776 166.376C128.084 166.871 128.649 167.118 129.47 167.118C129.928 167.118 130.301 166.992 130.59 166.74C130.889 166.488 131.108 166.147 131.248 165.718C131.398 165.279 131.472 164.78 131.472 164.22C131.472 163.361 131.304 162.675 130.968 162.162C130.642 161.649 130.133 161.392 129.442 161.392ZM137.552 160.37C138.466 160.37 139.143 160.571 139.582 160.972C140.02 161.373 140.24 162.013 140.24 162.89V168H139.344L139.106 166.936H139.05C138.723 167.347 138.378 167.65 138.014 167.846C137.659 168.042 137.164 168.14 136.53 168.14C135.848 168.14 135.284 167.963 134.836 167.608C134.388 167.244 134.164 166.679 134.164 165.914C134.164 165.167 134.458 164.593 135.046 164.192C135.634 163.781 136.539 163.557 137.762 163.52L139.036 163.478V163.03C139.036 162.405 138.9 161.971 138.63 161.728C138.359 161.485 137.976 161.364 137.482 161.364C137.09 161.364 136.716 161.425 136.362 161.546C136.007 161.658 135.676 161.789 135.368 161.938L134.99 161.014C135.316 160.837 135.704 160.687 136.152 160.566C136.6 160.435 137.066 160.37 137.552 160.37ZM137.916 164.374C136.982 164.411 136.334 164.561 135.97 164.822C135.615 165.083 135.438 165.452 135.438 165.928C135.438 166.348 135.564 166.656 135.816 166.852C136.077 167.048 136.408 167.146 136.81 167.146C137.444 167.146 137.972 166.973 138.392 166.628C138.812 166.273 139.022 165.732 139.022 165.004V164.332L137.916 164.374ZM147.737 161.532H145.287V168H144.069V161.532H141.647V160.496H147.737V161.532ZM155.603 164.234C155.603 165.475 155.285 166.437 154.651 167.118C154.025 167.799 153.176 168.14 152.103 168.14C151.44 168.14 150.847 167.991 150.325 167.692C149.811 167.384 149.405 166.941 149.107 166.362C148.808 165.774 148.659 165.065 148.659 164.234C148.659 162.993 148.971 162.036 149.597 161.364C150.222 160.692 151.071 160.356 152.145 160.356C152.826 160.356 153.423 160.51 153.937 160.818C154.459 161.117 154.865 161.555 155.155 162.134C155.453 162.703 155.603 163.403 155.603 164.234ZM149.933 164.234C149.933 165.121 150.105 165.825 150.451 166.348C150.805 166.861 151.365 167.118 152.131 167.118C152.887 167.118 153.442 166.861 153.797 166.348C154.151 165.825 154.329 165.121 154.329 164.234C154.329 163.347 154.151 162.652 153.797 162.148C153.442 161.644 152.882 161.392 152.117 161.392C151.351 161.392 150.796 161.644 150.451 162.148C150.105 162.652 149.933 163.347 149.933 164.234ZM161.125 160.356C162.049 160.356 162.791 160.678 163.351 161.322C163.921 161.966 164.205 162.937 164.205 164.234C164.205 165.513 163.921 166.483 163.351 167.146C162.791 167.809 162.045 168.14 161.111 168.14C160.533 168.14 160.052 168.033 159.669 167.818C159.296 167.594 159.002 167.337 158.787 167.048H158.703C158.722 167.207 158.741 167.407 158.759 167.65C158.778 167.893 158.787 168.103 158.787 168.28V171.36H157.555V160.496H158.563L158.731 161.518H158.787C159.011 161.191 159.305 160.916 159.669 160.692C160.033 160.468 160.519 160.356 161.125 160.356ZM160.901 161.392C160.136 161.392 159.595 161.607 159.277 162.036C158.969 162.465 158.806 163.119 158.787 163.996V164.234C158.787 165.158 158.937 165.872 159.235 166.376C159.543 166.871 160.108 167.118 160.929 167.118C161.387 167.118 161.76 166.992 162.049 166.74C162.348 166.488 162.567 166.147 162.707 165.718C162.857 165.279 162.931 164.78 162.931 164.22C162.931 163.361 162.763 162.675 162.427 162.162C162.101 161.649 161.592 161.392 160.901 161.392ZM168.455 157.85L171.941 168H173.649L177.093 157.85H175.595L172.837 166.53L170.023 157.85H168.455ZM182.354 164.85C182.354 166.628 181.22 167.174 180.03 167.174C179.12 167.174 178.574 166.698 178.574 165.984C178.574 164.948 180.044 164.612 182.354 164.374V164.85ZM179.75 168.182C181.08 168.182 181.864 167.734 182.326 166.964C182.34 167.412 182.382 167.72 182.424 168H183.712C183.572 167.286 183.502 166.418 183.516 165.158L183.53 163.422C183.544 161.308 182.606 160.314 180.534 160.314C179.064 160.314 177.636 161.224 177.51 162.848H178.826C178.882 161.924 179.498 161.35 180.548 161.35C181.486 161.35 182.256 161.812 182.256 163.184V163.366C179.162 163.716 177.16 164.234 177.16 166.012C177.16 167.398 178.336 168.182 179.75 168.182ZM186.702 157.85H185.428V168H186.702V157.85ZM193.469 164.85C193.469 166.628 192.335 167.174 191.145 167.174C190.235 167.174 189.689 166.698 189.689 165.984C189.689 164.948 191.159 164.612 193.469 164.374V164.85ZM190.865 168.182C192.195 168.182 192.979 167.734 193.441 166.964C193.455 167.412 193.497 167.72 193.539 168H194.827C194.687 167.286 194.617 166.418 194.631 165.158L194.645 163.422C194.659 161.308 193.721 160.314 191.649 160.314C190.179 160.314 188.751 161.224 188.625 162.848H189.941C189.997 161.924 190.613 161.35 191.663 161.35C192.601 161.35 193.371 161.812 193.371 163.184V163.366C190.277 163.716 188.275 164.234 188.275 166.012C188.275 167.398 189.451 168.182 190.865 168.182ZM197.817 160.468H196.543V168H197.817V163.912C197.817 162.302 198.573 161.448 199.805 161.448C201.261 161.448 201.457 162.456 201.457 163.618V168H202.731V163.24C202.731 161.518 202.073 160.342 200.253 160.342C198.979 160.342 198.251 160.888 197.817 161.602V160.468ZM205.001 160.468H203.811V161.49H205.001V166.11C205.001 167.678 205.337 168 206.779 168H207.703V166.936H207.059C206.331 166.936 206.275 166.74 206.275 165.956V161.49H207.703V160.468H206.275V158.578H205.001V160.468ZM213.936 164.85C213.936 166.628 212.802 167.174 211.612 167.174C210.702 167.174 210.156 166.698 210.156 165.984C210.156 164.948 211.626 164.612 213.936 164.374V164.85ZM211.332 168.182C212.662 168.182 213.446 167.734 213.908 166.964C213.922 167.412 213.964 167.72 214.006 168H215.294C215.154 167.286 215.084 166.418 215.098 165.158L215.112 163.422C215.126 161.308 214.188 160.314 212.116 160.314C210.646 160.314 209.218 161.224 209.092 162.848H210.408C210.464 161.924 211.08 161.35 212.13 161.35C213.068 161.35 213.838 161.812 213.838 163.184V163.366C210.744 163.716 208.742 164.234 208.742 166.012C208.742 167.398 209.918 168.182 211.332 168.182ZM222.628 168H224.056V159.082H227.36V157.85H219.324V159.082H222.628V168ZM231.002 160.44C230.862 160.426 230.75 160.426 230.624 160.426C229.644 160.454 228.874 160.93 228.496 161.784V160.468H227.25V168H228.524V164.052C228.524 162.4 229.112 161.742 230.288 161.742C230.498 161.742 230.736 161.77 231.002 161.798V160.44ZM236.699 164.85C236.699 166.628 235.565 167.174 234.375 167.174C233.465 167.174 232.919 166.698 232.919 165.984C232.919 164.948 234.389 164.612 236.699 164.374V164.85ZM234.095 168.182C235.425 168.182 236.209 167.734 236.671 166.964C236.685 167.412 236.727 167.72 236.769 168H238.057C237.917 167.286 237.847 166.418 237.861 165.158L237.875 163.422C237.889 161.308 236.951 160.314 234.879 160.314C233.409 160.314 231.981 161.224 231.855 162.848H233.171C233.227 161.924 233.843 161.35 234.893 161.35C235.831 161.35 236.601 161.812 236.601 163.184V163.366C233.507 163.716 231.505 164.234 231.505 166.012C231.505 167.398 232.681 168.182 234.095 168.182ZM240.111 160.468H238.697L241.539 168H242.673L245.515 160.468H244.199L242.155 166.236L240.111 160.468ZM253.041 164.654C253.209 162.274 251.823 160.342 249.527 160.342C247.469 160.342 245.873 161.868 245.873 164.248C245.873 166.474 247.189 168.182 249.569 168.182C251.403 168.182 252.593 167.118 252.943 165.816H251.627C251.305 166.558 250.689 167.062 249.569 167.062C248.449 167.062 247.301 166.278 247.245 164.654H253.041ZM249.527 161.434C250.871 161.434 251.669 162.498 251.697 163.562H247.259C247.371 162.05 248.393 161.434 249.527 161.434ZM255.8 157.85H254.526V168H255.8V157.85ZM268.465 164.766C268.143 166.068 267.149 166.978 265.539 166.978C263.649 166.978 262.305 165.466 262.305 162.904C262.305 160.272 263.705 158.872 265.497 158.872C267.121 158.872 268.101 159.824 268.409 161.084H269.795C269.361 158.914 267.667 157.668 265.567 157.668C262.697 157.668 260.849 159.754 260.849 162.904C260.849 165.998 262.543 168.182 265.455 168.182C267.653 168.182 269.403 167.006 269.851 164.766H268.465ZM272.306 164.262C272.306 162.204 273.412 161.462 274.56 161.462C275.708 161.462 276.814 162.26 276.814 164.262C276.814 166.194 275.708 167.062 274.56 167.062C273.412 167.062 272.306 166.264 272.306 164.262ZM274.56 160.342C272.81 160.342 270.948 161.532 270.948 164.262C270.948 166.992 272.81 168.182 274.56 168.182C276.31 168.182 278.172 166.992 278.172 164.262C278.172 161.532 276.31 160.342 274.56 160.342ZM280.97 163.912C280.97 162.302 281.698 161.448 282.79 161.448C284.176 161.448 284.4 162.456 284.4 163.618V168H285.674V163.912C285.674 162.302 286.401 161.448 287.494 161.448C288.88 161.448 289.104 162.456 289.104 163.618V168H290.378V163.24C290.378 161.518 289.692 160.342 287.942 160.342C286.892 160.342 286.01 160.748 285.408 161.672C285.072 160.846 284.386 160.342 283.238 160.342C282.104 160.342 281.404 160.888 280.97 161.602V160.468H279.696V168H280.97V163.912ZM292.287 160.468V170.45H293.561V166.866C294.023 167.664 294.821 168.182 296.025 168.182C297.747 168.182 299.245 166.754 299.245 164.262C299.245 161.784 297.747 160.342 296.025 160.342C294.821 160.342 294.023 160.86 293.561 161.658V160.468H292.287ZM293.505 164.262C293.505 162.274 294.569 161.434 295.703 161.434C297.005 161.434 297.859 162.47 297.859 164.262C297.859 166.054 297.005 167.09 295.703 167.09C294.569 167.09 293.505 166.25 293.505 164.262ZM305.483 164.85C305.483 166.628 304.349 167.174 303.159 167.174C302.249 167.174 301.703 166.698 301.703 165.984C301.703 164.948 303.173 164.612 305.483 164.374V164.85ZM302.879 168.182C304.209 168.182 304.993 167.734 305.455 166.964C305.469 167.412 305.511 167.72 305.553 168H306.841C306.701 167.286 306.631 166.418 306.645 165.158L306.659 163.422C306.673 161.308 305.735 160.314 303.663 160.314C302.193 160.314 300.765 161.224 300.639 162.848H301.955C302.011 161.924 302.627 161.35 303.677 161.35C304.615 161.35 305.385 161.812 305.385 163.184V163.366C302.291 163.716 300.289 164.234 300.289 166.012C300.289 167.398 301.465 168.182 302.879 168.182ZM309.831 160.468H308.557V168H309.831V163.912C309.831 162.302 310.587 161.448 311.819 161.448C313.275 161.448 313.471 162.456 313.471 163.618V168H314.745V163.24C314.745 161.518 314.087 160.342 312.267 160.342C310.993 160.342 310.265 160.888 309.831 161.602V160.468ZM320.768 160.468L318.906 166.278L316.988 160.468H315.574L318.29 168L318.234 168.154C317.898 169.33 317.492 169.386 316.652 169.386H316.134V170.45H316.792C318.472 170.45 318.864 169.96 319.41 168.322L322.098 160.468H320.768Z" fill="#3E3E3E" fill-opacity="0.5"/>
<path d="M887.815 33.18H890.8V34.245H887.815V37.335H886.735V34.245H883.75V33.18H886.735V30.075H887.815V33.18ZM898.979 30.795C898.979 31.515 898.779 32.09 898.379 32.52C897.979 32.94 897.439 33.22 896.759 33.36V33.42C897.619 33.52 898.259 33.79 898.679 34.23C899.099 34.67 899.309 35.245 899.309 35.955C899.309 36.575 899.164 37.13 898.874 37.62C898.584 38.1 898.134 38.475 897.524 38.745C896.924 39.015 896.149 39.15 895.199 39.15C894.639 39.15 894.119 39.105 893.639 39.015C893.159 38.935 892.699 38.785 892.259 38.565V37.335C892.709 37.555 893.194 37.73 893.714 37.86C894.234 37.98 894.734 38.04 895.214 38.04C896.174 38.04 896.864 37.855 897.284 37.485C897.714 37.105 897.929 36.585 897.929 35.925C897.929 35.255 897.664 34.775 897.134 34.485C896.614 34.185 895.879 34.035 894.929 34.035H893.894V32.91H894.944C895.824 32.91 896.489 32.725 896.939 32.355C897.399 31.985 897.629 31.495 897.629 30.885C897.629 30.365 897.454 29.965 897.104 29.685C896.754 29.395 896.279 29.25 895.679 29.25C895.099 29.25 894.604 29.335 894.194 29.505C893.784 29.675 893.379 29.89 892.979 30.15L892.319 29.25C892.699 28.95 893.169 28.69 893.729 28.47C894.299 28.25 894.944 28.14 895.664 28.14C896.784 28.14 897.614 28.39 898.154 28.89C898.704 29.39 898.979 30.025 898.979 30.795ZM904.443 28.14C905.383 28.14 906.153 28.36 906.753 28.8C907.353 29.24 907.653 29.875 907.653 30.705C907.653 31.135 907.558 31.51 907.368 31.83C907.188 32.15 906.943 32.435 906.633 32.685C906.323 32.925 905.983 33.14 905.613 33.33C906.053 33.54 906.453 33.78 906.813 34.05C907.173 34.31 907.458 34.615 907.668 34.965C907.888 35.315 907.998 35.735 907.998 36.225C907.998 37.125 907.678 37.84 907.038 38.37C906.408 38.89 905.558 39.15 904.488 39.15C903.338 39.15 902.453 38.9 901.833 38.4C901.213 37.89 900.903 37.18 900.903 36.27C900.903 35.78 901.003 35.355 901.203 34.995C901.413 34.635 901.688 34.325 902.028 34.065C902.368 33.805 902.733 33.585 903.123 33.405C902.603 33.105 902.158 32.745 901.788 32.325C901.428 31.895 901.248 31.35 901.248 30.69C901.248 30.14 901.388 29.68 901.668 29.31C901.948 28.93 902.328 28.64 902.808 28.44C903.288 28.24 903.833 28.14 904.443 28.14ZM904.428 29.205C903.878 29.205 903.423 29.34 903.063 29.61C902.713 29.87 902.538 30.25 902.538 30.75C902.538 31.12 902.623 31.43 902.793 31.68C902.973 31.93 903.213 32.145 903.513 32.325C903.813 32.495 904.143 32.66 904.503 32.82C905.023 32.6 905.458 32.335 905.808 32.025C906.168 31.715 906.348 31.29 906.348 30.75C906.348 30.25 906.173 29.87 905.823 29.61C905.473 29.34 905.008 29.205 904.428 29.205ZM902.193 36.285C902.193 36.805 902.378 37.24 902.748 37.59C903.118 37.93 903.688 38.1 904.458 38.1C905.188 38.1 905.743 37.93 906.123 37.59C906.513 37.24 906.708 36.79 906.708 36.24C906.708 35.72 906.503 35.29 906.093 34.95C905.683 34.6 905.138 34.295 904.458 34.035L904.218 33.945C903.558 34.225 903.053 34.55 902.703 34.92C902.363 35.28 902.193 35.735 902.193 36.285ZM912.912 34.89C912.912 33.67 913.087 32.495 913.437 31.365C913.797 30.225 914.357 29.2 915.117 28.29H916.362C915.662 29.23 915.132 30.265 914.772 31.395C914.422 32.525 914.247 33.685 914.247 34.875C914.247 36.035 914.422 37.175 914.772 38.295C915.132 39.405 915.657 40.43 916.347 41.37H915.117C914.357 40.49 913.797 39.495 913.437 38.385C913.087 37.265 912.912 36.1 912.912 34.89ZM924.534 33.555C924.534 36.585 923.469 38.055 921.759 38.055C920.049 38.055 918.984 36.585 918.984 33.555C918.984 30.54 920.049 29.07 921.759 29.07C923.469 29.07 924.534 30.54 924.534 33.555ZM925.989 33.555C925.989 30.12 924.654 27.93 921.759 27.93C918.864 27.93 917.529 30.12 917.529 33.555C917.529 37.005 918.864 39.195 921.759 39.195C924.654 39.195 925.989 37.005 925.989 33.555ZM934.451 33.555C934.451 36.585 933.386 38.055 931.676 38.055C929.966 38.055 928.901 36.585 928.901 33.555C928.901 30.54 929.966 29.07 931.676 29.07C933.386 29.07 934.451 30.54 934.451 33.555ZM935.906 33.555C935.906 30.12 934.571 27.93 931.676 27.93C928.781 27.93 927.446 30.12 927.446 33.555C927.446 37.005 928.781 39.195 931.676 39.195C934.571 39.195 935.906 37.005 935.906 33.555ZM944.368 33.555C944.368 36.585 943.303 38.055 941.593 38.055C939.883 38.055 938.818 36.585 938.818 33.555C938.818 30.54 939.883 29.07 941.593 29.07C943.303 29.07 944.368 30.54 944.368 33.555ZM945.823 33.555C945.823 30.12 944.488 27.93 941.593 27.93C938.698 27.93 937.363 30.12 937.363 33.555C937.363 37.005 938.698 39.195 941.593 39.195C944.488 39.195 945.823 37.005 945.823 33.555ZM950.46 34.89C950.46 36.1 950.28 37.265 949.92 38.385C949.57 39.495 949.015 40.49 948.255 41.37H947.025C947.715 40.43 948.235 39.405 948.585 38.295C948.945 37.175 949.125 36.035 949.125 34.875C949.125 33.685 948.945 32.525 948.585 31.395C948.235 30.265 947.71 29.23 947.01 28.29H948.255C949.015 29.2 949.57 30.225 949.92 31.365C950.28 32.495 950.46 33.67 950.46 34.89ZM962.341 33.555C962.341 36.585 961.276 38.055 959.566 38.055C957.856 38.055 956.791 36.585 956.791 33.555C956.791 30.54 957.856 29.07 959.566 29.07C961.276 29.07 962.341 30.54 962.341 33.555ZM963.796 33.555C963.796 30.12 962.461 27.93 959.566 27.93C956.671 27.93 955.336 30.12 955.336 33.555C955.336 37.005 956.671 39.195 959.566 39.195C962.461 39.195 963.796 37.005 963.796 33.555ZM972.258 33.555C972.258 36.585 971.193 38.055 969.483 38.055C967.773 38.055 966.708 36.585 966.708 33.555C966.708 30.54 967.773 29.07 969.483 29.07C971.193 29.07 972.258 30.54 972.258 33.555ZM973.713 33.555C973.713 30.12 972.378 27.93 969.483 27.93C966.588 27.93 965.253 30.12 965.253 33.555C965.253 37.005 966.588 39.195 969.483 39.195C972.378 39.195 973.713 37.005 973.713 33.555ZM982.175 33.555C982.175 36.585 981.11 38.055 979.4 38.055C977.69 38.055 976.625 36.585 976.625 33.555C976.625 30.54 977.69 29.07 979.4 29.07C981.11 29.07 982.175 30.54 982.175 33.555ZM983.63 33.555C983.63 30.12 982.295 27.93 979.4 27.93C976.505 27.93 975.17 30.12 975.17 33.555C975.17 37.005 976.505 39.195 979.4 39.195C982.295 39.195 983.63 37.005 983.63 33.555ZM989.782 35.535V34.245H985.012V35.535H989.782ZM998.171 33.555C998.171 36.585 997.106 38.055 995.396 38.055C993.686 38.055 992.621 36.585 992.621 33.555C992.621 30.54 993.686 29.07 995.396 29.07C997.106 29.07 998.171 30.54 998.171 33.555ZM999.626 33.555C999.626 30.12 998.291 27.93 995.396 27.93C992.501 27.93 991.166 30.12 991.166 33.555C991.166 37.005 992.501 39.195 995.396 39.195C998.291 39.195 999.626 37.005 999.626 33.555ZM1008.09 33.555C1008.09 36.585 1007.02 38.055 1005.31 38.055C1003.6 38.055 1002.54 36.585 1002.54 33.555C1002.54 30.54 1003.6 29.07 1005.31 29.07C1007.02 29.07 1008.09 30.54 1008.09 33.555ZM1009.54 33.555C1009.54 30.12 1008.21 27.93 1005.31 27.93C1002.42 27.93 1001.08 30.12 1001.08 33.555C1001.08 37.005 1002.42 39.195 1005.31 39.195C1008.21 39.195 1009.54 37.005 1009.54 33.555ZM1015.7 35.535V34.245H1010.93V35.535H1015.7ZM1024.08 33.555C1024.08 36.585 1023.02 38.055 1021.31 38.055C1019.6 38.055 1018.53 36.585 1018.53 33.555C1018.53 30.54 1019.6 29.07 1021.31 29.07C1023.02 29.07 1024.08 30.54 1024.08 33.555ZM1025.54 33.555C1025.54 30.12 1024.2 27.93 1021.31 27.93C1018.41 27.93 1017.08 30.12 1017.08 33.555C1017.08 37.005 1018.41 39.195 1021.31 39.195C1024.2 39.195 1025.54 37.005 1025.54 33.555ZM1034 33.555C1034 36.585 1032.94 38.055 1031.23 38.055C1029.52 38.055 1028.45 36.585 1028.45 33.555C1028.45 30.54 1029.52 29.07 1031.23 29.07C1032.94 29.07 1034 30.54 1034 33.555ZM1035.46 33.555C1035.46 30.12 1034.12 27.93 1031.23 27.93C1028.33 27.93 1027 30.12 1027 33.555C1027 37.005 1028.33 39.195 1031.23 39.195C1034.12 39.195 1035.46 37.005 1035.46 33.555Z" fill="#3E3E3E"/>
</svg>
